<svg xmlns="http://www.w3.org/2000/svg" width="257" height="36" viewBox="0 0 257 36"><g fill="#FFFFFF" fill-rule="evenodd"><path d="M21.927 4v3.763l12.69 5.861-12.69 5.863v3.762l7.15-3.302v4.312l-9.768 4.726-9.768-4.726v-4.382l7.298 3.372v-3.762L4.151 13.624l12.688-5.86V4L.234 11.672v3.907l6.133 2.834v7.859l12.942 6.451 12.94-6.451V18.48l6.283-2.902v-3.907z"></path><path fill-rule="nonzero" d="M50.85 8.5h3.5V26h-3.5V8.5zm6.8 5h3.2v1.9c.467-.717 1.05-1.262 1.75-1.638a4.845 4.845 0 0 1 2.325-.562c1.4 0 2.483.433 3.25 1.3.767.867 1.15 2.092 1.15 3.675V26H65.95v-6.925c0-.883-.196-1.554-.588-2.012-.391-.459-.97-.688-1.737-.688-.867 0-1.53.312-1.987.938-.459.625-.688 1.529-.688 2.712V26h-3.3V13.5zM77.075 26H73.75v-9.725h-2.7V13.5h2.7v-.625c0-1.55.417-2.717 1.25-3.5.833-.783 1.925-1.175 3.275-1.175.667 0 1.492.075 2.475.225v3.05c-.85-.133-1.483-.2-1.9-.2-.65 0-1.108.158-1.375.475-.267.317-.4.808-.4 1.475v.275H80.6v2.775h-3.525V26zm9 0h-3.3V13.5h3.3V26zM84.4 12.025c-.6 0-1.1-.2-1.5-.6-.4-.4-.6-.9-.6-1.5 0-.617.2-1.125.6-1.525.4-.4.9-.6 1.5-.6.617 0 1.125.2 1.525.6.4.4.6.908.6 1.525 0 .6-.2 1.1-.6 1.5-.4.4-.908.6-1.525.6zm4.775 1.475h3.2v1.9c.467-.717 1.05-1.262 1.75-1.638a4.845 4.845 0 0 1 2.325-.562c1.4 0 2.483.433 3.25 1.3.767.867 1.15 2.092 1.15 3.675V26h-3.375v-6.925c0-.883-.196-1.554-.587-2.012-.392-.459-.971-.688-1.738-.688-.867 0-1.53.312-1.988.938-.458.625-.687 1.529-.687 2.712V26h-3.3V13.5zM115.3 26h-3.2v-1.9c-.983 1.467-2.308 2.2-3.975 2.2-1.417 0-2.492-.446-3.225-1.338-.733-.891-1.1-2.12-1.1-3.687V13.5h3.375v6.95c0 .9.17 1.57.513 2.012.341.442.87.663 1.587.663.9 0 1.575-.33 2.025-.988.45-.658.675-1.545.675-2.662V13.5h3.325V26zm13.925-10.475a4.475 4.475 0 0 1 1.7-1.713c.717-.408 1.55-.612 2.5-.612 1.45 0 2.6.454 3.45 1.363.85.908 1.275 2.187 1.275 3.837V26h-3.325v-6.925c0-1.8-.75-2.7-2.25-2.7-.917 0-1.604.312-2.063.938-.458.625-.687 1.529-.687 2.712V26h-3.3v-6.925c0-.9-.192-1.575-.575-2.025-.383-.45-.95-.675-1.7-.675-1.8 0-2.7 1.217-2.7 3.65V26h-3.3V13.5h3.2v1.925c.833-1.483 2.133-2.225 3.9-2.225.9 0 1.683.196 2.35.588.667.391 1.175.97 1.525 1.737zm31.775 7.7h-9.2L150.525 26h-3.85l8.1-17.5h3.25l8.1 17.5h-3.85L161 23.225zm-1.625-3.5L156.4 13.3l-2.975 6.425h5.95zm7.125.025c0-1.283.283-2.42.85-3.413a5.95 5.95 0 0 1 2.363-2.312c1.008-.55 2.162-.825 3.462-.825.95 0 1.83.154 2.637.463a5.95 5.95 0 0 1 2.113 1.362l-1.875 2.65c-.833-.833-1.792-1.25-2.875-1.25-.967 0-1.754.308-2.363.925-.608.617-.912 1.417-.912 2.4 0 .967.304 1.762.912 2.387.609.626 1.396.938 2.363.938 1.083 0 2.067-.425 2.95-1.275l1.825 2.65a6.05 6.05 0 0 1-2.137 1.375 7.438 7.438 0 0 1-2.688.475c-1.3 0-2.45-.275-3.45-.825-1-.55-1.78-1.32-2.338-2.313-.558-.991-.837-2.129-.837-3.412zm12.725-3.7c.383-.917 1.054-1.62 2.013-2.113.958-.491 2.145-.737 3.562-.737 1.85 0 3.225.42 4.125 1.263.9.841 1.35 2.12 1.35 3.837v7.725h-3.3v-1.7c-.4.617-.933 1.1-1.6 1.45-.667.35-1.417.525-2.25.525-1.233 0-2.246-.367-3.037-1.1-.792-.733-1.188-1.675-1.188-2.825 0-1.083.362-1.98 1.088-2.688.725-.708 1.695-1.12 2.912-1.237l3.425-.3c.433-.05.65-.217.65-.5v-.2c0-.4-.187-.712-.563-.938-.375-.225-.912-.337-1.612-.337-.8 0-1.47.142-2.013.425-.541.283-.912.683-1.112 1.2l-2.45-1.75zm4.65 4.775c-.483.067-.862.22-1.137.463a1.163 1.163 0 0 0-.413.912c0 .433.158.77.475 1.012.317.242.75.363 1.3.363.817 0 1.5-.254 2.05-.762.55-.509.825-1.13.825-1.863v-.5l-3.1.375zM205.45 26h-3.3v-1.75a4.828 4.828 0 0 1-1.787 1.525c-.709.35-1.505.525-2.388.525-1.1 0-2.083-.275-2.95-.825-.867-.55-1.537-1.32-2.013-2.313-.475-.991-.712-2.129-.712-3.412s.237-2.42.712-3.413c.476-.991 1.138-1.762 1.988-2.312.85-.55 1.825-.825 2.925-.825.867 0 1.667.18 2.4.538a4.774 4.774 0 0 1 1.825 1.562V8.5h3.3V26zm-6.475-9.575c-.967 0-1.754.308-2.362.925-.609.617-.913 1.417-.913 2.4 0 .983.304 1.783.913 2.4.608.617 1.395.925 2.362.925.967 0 1.75-.304 2.35-.912.6-.609.9-1.413.9-2.413 0-1-.3-1.804-.9-2.413-.6-.608-1.383-.912-2.35-.912zm8.6 3.325c0-1.233.262-2.346.788-3.337a5.894 5.894 0 0 1 2.237-2.35c.967-.576 2.092-.863 3.375-.863 1.267 0 2.362.275 3.287.825.926.55 1.638 1.325 2.138 2.325.5 1 .75 2.167.75 3.5v.9h-9.2l.025.05c.183.783.592 1.38 1.225 1.787a3.838 3.838 0 0 0 2.125.613c1.383 0 2.567-.425 3.55-1.275l1.375 2.725c-1.333 1.1-2.992 1.65-4.975 1.65-1.367 0-2.558-.283-3.575-.85-1.017-.567-1.792-1.346-2.325-2.337-.533-.992-.8-2.113-.8-3.363zm8.975-1.4c-.083-.7-.354-1.267-.813-1.7-.458-.433-1.079-.65-1.862-.65-.783 0-1.43.2-1.938.6-.508.4-.845.983-1.012 1.75h5.625zm16.7-2.825a4.475 4.475 0 0 1 1.7-1.713c.717-.408 1.55-.612 2.5-.612 1.45 0 2.6.454 3.45 1.363.85.908 1.275 2.187 1.275 3.837V26h-3.325v-6.925c0-1.8-.75-2.7-2.25-2.7-.917 0-1.604.312-2.063.938-.458.625-.687 1.529-.687 2.712V26h-3.3v-6.925c0-.9-.192-1.575-.575-2.025-.383-.45-.95-.675-1.7-.675-1.8 0-2.7 1.217-2.7 3.65V26h-3.3V13.5h3.2v1.925c.833-1.483 2.133-2.225 3.9-2.225.9 0 1.683.196 2.35.588.667.391 1.175.97 1.525 1.737zm14.775 8.675l-5.3-10.7h3.85l3.175 6.85 3.1-6.85h3.5L248.475 31h-3.5l3.05-6.8z"></path></g></svg>